<mxfile host="app.diagrams.net" modified="2022-02-09T15:49:07.183Z" agent="5.0 (Windows)" etag="ej3l91G5vjZqAYyQ2Otl" version="16.5.4" type="github">
  <diagram id="cgbHl0x3MBWXBxnRiTDO" name="Page-1">
    <mxGraphModel dx="1038" dy="603" grid="1" gridSize="10" guides="1" tooltips="1" connect="1" arrows="1" fold="1" page="1" pageScale="1" pageWidth="850" pageHeight="1100" math="0" shadow="0">
      <root>
        <mxCell id="0" />
        <mxCell id="1" parent="0" />
        <mxCell id="xvZxMcmn04MtSwVoVZRB-2" value="Directeur" style="shape=umlActor;verticalLabelPosition=bottom;verticalAlign=top;html=1;outlineConnect=0;" vertex="1" parent="1">
          <mxGeometry x="20" y="110" width="30" height="60" as="geometry" />
        </mxCell>
        <mxCell id="xvZxMcmn04MtSwVoVZRB-3" value="&lt;div&gt;Gestionnaire &lt;br&gt;&lt;/div&gt;&lt;div&gt;stagiaire&lt;br&gt;&lt;/div&gt;" style="shape=umlActor;verticalLabelPosition=bottom;verticalAlign=top;html=1;outlineConnect=0;" vertex="1" parent="1">
          <mxGeometry x="20" y="390" width="30" height="60" as="geometry" />
        </mxCell>
        <mxCell id="xvZxMcmn04MtSwVoVZRB-4" value="Stagiaire" style="shape=umlActor;verticalLabelPosition=bottom;verticalAlign=top;html=1;outlineConnect=0;" vertex="1" parent="1">
          <mxGeometry x="790" y="90" width="30" height="60" as="geometry" />
        </mxCell>
        <mxCell id="xvZxMcmn04MtSwVoVZRB-5" value="Formateur" style="shape=umlActor;verticalLabelPosition=bottom;verticalAlign=top;html=1;outlineConnect=0;" vertex="1" parent="1">
          <mxGeometry x="790" y="395" width="30" height="60" as="geometry" />
        </mxCell>
        <mxCell id="xvZxMcmn04MtSwVoVZRB-15" value="" style="whiteSpace=wrap;html=1;aspect=fixed;" vertex="1" parent="1">
          <mxGeometry x="160" y="40" width="550" height="550" as="geometry" />
        </mxCell>
        <mxCell id="xvZxMcmn04MtSwVoVZRB-16" value="gerer la formation" style="rounded=1;whiteSpace=wrap;html=1;" vertex="1" parent="1">
          <mxGeometry x="170" y="50" width="120" height="30" as="geometry" />
        </mxCell>
        <mxCell id="xvZxMcmn04MtSwVoVZRB-17" value="gerer les modules" style="rounded=1;whiteSpace=wrap;html=1;" vertex="1" parent="1">
          <mxGeometry x="170" y="110" width="120" height="30" as="geometry" />
        </mxCell>
        <mxCell id="xvZxMcmn04MtSwVoVZRB-18" value="consulter d&#39;etat" style="rounded=1;whiteSpace=wrap;html=1;" vertex="1" parent="1">
          <mxGeometry x="170" y="160" width="120" height="30" as="geometry" />
        </mxCell>
        <mxCell id="xvZxMcmn04MtSwVoVZRB-19" value="authentifier" style="rounded=1;whiteSpace=wrap;html=1;" vertex="1" parent="1">
          <mxGeometry x="375" y="230" width="120" height="30" as="geometry" />
        </mxCell>
        <mxCell id="xvZxMcmn04MtSwVoVZRB-20" value="introduir info-stagiaire" style="rounded=1;whiteSpace=wrap;html=1;" vertex="1" parent="1">
          <mxGeometry x="170" y="360" width="120" height="30" as="geometry" />
        </mxCell>
        <mxCell id="xvZxMcmn04MtSwVoVZRB-21" value="consulter d&#39;etat d&#39;absence" style="rounded=1;whiteSpace=wrap;html=1;" vertex="1" parent="1">
          <mxGeometry x="170" y="410" width="120" height="30" as="geometry" />
        </mxCell>
        <mxCell id="xvZxMcmn04MtSwVoVZRB-22" style="edgeStyle=orthogonalEdgeStyle;rounded=0;orthogonalLoop=1;jettySize=auto;html=1;exitX=0.5;exitY=1;exitDx=0;exitDy=0;" edge="1" parent="1" source="xvZxMcmn04MtSwVoVZRB-20" target="xvZxMcmn04MtSwVoVZRB-20">
          <mxGeometry relative="1" as="geometry" />
        </mxCell>
        <mxCell id="xvZxMcmn04MtSwVoVZRB-23" value="importer informations" style="rounded=1;whiteSpace=wrap;html=1;" vertex="1" parent="1">
          <mxGeometry x="170" y="460" width="120" height="30" as="geometry" />
        </mxCell>
        <mxCell id="xvZxMcmn04MtSwVoVZRB-24" value="remplir cahier de textes" style="rounded=1;whiteSpace=wrap;html=1;" vertex="1" parent="1">
          <mxGeometry x="580" y="330" width="120" height="30" as="geometry" />
        </mxCell>
        <mxCell id="xvZxMcmn04MtSwVoVZRB-25" value="choisir groupe" style="rounded=1;whiteSpace=wrap;html=1;" vertex="1" parent="1">
          <mxGeometry x="580" y="370" width="120" height="30" as="geometry" />
        </mxCell>
        <mxCell id="xvZxMcmn04MtSwVoVZRB-26" value="choisir module" style="rounded=1;whiteSpace=wrap;html=1;" vertex="1" parent="1">
          <mxGeometry x="580" y="410" width="120" height="30" as="geometry" />
        </mxCell>
        <mxCell id="xvZxMcmn04MtSwVoVZRB-27" value="re,plir info seance " style="rounded=1;whiteSpace=wrap;html=1;" vertex="1" parent="1">
          <mxGeometry x="580" y="460" width="120" height="30" as="geometry" />
        </mxCell>
        <mxCell id="xvZxMcmn04MtSwVoVZRB-28" value="enregistrer absence" style="rounded=1;whiteSpace=wrap;html=1;" vertex="1" parent="1">
          <mxGeometry x="580" y="500" width="120" height="30" as="geometry" />
        </mxCell>
        <mxCell id="xvZxMcmn04MtSwVoVZRB-29" value="choisir filieres" style="rounded=1;whiteSpace=wrap;html=1;" vertex="1" parent="1">
          <mxGeometry x="580" y="60" width="120" height="30" as="geometry" />
        </mxCell>
        <mxCell id="xvZxMcmn04MtSwVoVZRB-30" value="consulter ses absences" style="rounded=1;whiteSpace=wrap;html=1;" vertex="1" parent="1">
          <mxGeometry x="580" y="130" width="120" height="30" as="geometry" />
        </mxCell>
        <mxCell id="xvZxMcmn04MtSwVoVZRB-31" value="" style="endArrow=none;html=1;rounded=0;entryX=0;entryY=0.5;entryDx=0;entryDy=0;" edge="1" parent="1" source="xvZxMcmn04MtSwVoVZRB-2" target="xvZxMcmn04MtSwVoVZRB-16">
          <mxGeometry relative="1" as="geometry">
            <mxPoint x="60" y="130" as="sourcePoint" />
            <mxPoint x="220" y="130" as="targetPoint" />
          </mxGeometry>
        </mxCell>
        <mxCell id="xvZxMcmn04MtSwVoVZRB-33" value="" style="endArrow=none;html=1;rounded=0;entryX=0;entryY=0.75;entryDx=0;entryDy=0;" edge="1" parent="1" target="xvZxMcmn04MtSwVoVZRB-17">
          <mxGeometry relative="1" as="geometry">
            <mxPoint x="60" y="130" as="sourcePoint" />
            <mxPoint x="220" y="130" as="targetPoint" />
          </mxGeometry>
        </mxCell>
        <mxCell id="xvZxMcmn04MtSwVoVZRB-34" value="" style="endArrow=none;html=1;rounded=0;entryX=0;entryY=0.25;entryDx=0;entryDy=0;" edge="1" parent="1" target="xvZxMcmn04MtSwVoVZRB-18">
          <mxGeometry relative="1" as="geometry">
            <mxPoint x="60" y="140" as="sourcePoint" />
            <mxPoint x="190" y="170" as="targetPoint" />
          </mxGeometry>
        </mxCell>
        <mxCell id="xvZxMcmn04MtSwVoVZRB-35" value="" style="endArrow=none;html=1;rounded=0;entryX=0;entryY=0.75;entryDx=0;entryDy=0;exitX=1;exitY=0.3333333333333333;exitDx=0;exitDy=0;exitPerimeter=0;" edge="1" parent="1" source="xvZxMcmn04MtSwVoVZRB-3" target="xvZxMcmn04MtSwVoVZRB-20">
          <mxGeometry relative="1" as="geometry">
            <mxPoint x="10" y="400" as="sourcePoint" />
            <mxPoint x="170" y="400" as="targetPoint" />
          </mxGeometry>
        </mxCell>
        <mxCell id="xvZxMcmn04MtSwVoVZRB-36" value="" style="endArrow=none;html=1;rounded=0;entryX=0;entryY=0.5;entryDx=0;entryDy=0;exitX=1;exitY=0.3333333333333333;exitDx=0;exitDy=0;exitPerimeter=0;" edge="1" parent="1" source="xvZxMcmn04MtSwVoVZRB-3" target="xvZxMcmn04MtSwVoVZRB-21">
          <mxGeometry relative="1" as="geometry">
            <mxPoint x="50" y="424.5" as="sourcePoint" />
            <mxPoint x="210" y="425" as="targetPoint" />
          </mxGeometry>
        </mxCell>
        <mxCell id="xvZxMcmn04MtSwVoVZRB-37" value="" style="endArrow=none;html=1;rounded=0;entryX=0;entryY=0.5;entryDx=0;entryDy=0;" edge="1" parent="1" target="xvZxMcmn04MtSwVoVZRB-23">
          <mxGeometry relative="1" as="geometry">
            <mxPoint x="60" y="420" as="sourcePoint" />
            <mxPoint x="190" y="440" as="targetPoint" />
          </mxGeometry>
        </mxCell>
        <mxCell id="xvZxMcmn04MtSwVoVZRB-38" value="" style="endArrow=none;html=1;rounded=0;" edge="1" parent="1" target="xvZxMcmn04MtSwVoVZRB-4">
          <mxGeometry relative="1" as="geometry">
            <mxPoint x="700" y="80" as="sourcePoint" />
            <mxPoint x="850" y="80" as="targetPoint" />
          </mxGeometry>
        </mxCell>
        <mxCell id="xvZxMcmn04MtSwVoVZRB-39" value="" style="endArrow=none;html=1;rounded=0;" edge="1" parent="1">
          <mxGeometry relative="1" as="geometry">
            <mxPoint x="700" y="140" as="sourcePoint" />
            <mxPoint x="790" y="120" as="targetPoint" />
          </mxGeometry>
        </mxCell>
        <mxCell id="xvZxMcmn04MtSwVoVZRB-41" value="" style="endArrow=none;html=1;rounded=0;exitX=1;exitY=0.5;exitDx=0;exitDy=0;entryX=0;entryY=0.3333333333333333;entryDx=0;entryDy=0;entryPerimeter=0;" edge="1" parent="1" source="xvZxMcmn04MtSwVoVZRB-24" target="xvZxMcmn04MtSwVoVZRB-5">
          <mxGeometry relative="1" as="geometry">
            <mxPoint x="720" y="340" as="sourcePoint" />
            <mxPoint x="880" y="340" as="targetPoint" />
          </mxGeometry>
        </mxCell>
        <mxCell id="xvZxMcmn04MtSwVoVZRB-42" value="" style="endArrow=none;html=1;rounded=0;exitX=1;exitY=0.5;exitDx=0;exitDy=0;" edge="1" parent="1" source="xvZxMcmn04MtSwVoVZRB-25">
          <mxGeometry relative="1" as="geometry">
            <mxPoint x="640" y="430" as="sourcePoint" />
            <mxPoint x="790" y="420" as="targetPoint" />
          </mxGeometry>
        </mxCell>
        <mxCell id="xvZxMcmn04MtSwVoVZRB-43" value="" style="endArrow=none;html=1;rounded=0;exitX=1;exitY=0.5;exitDx=0;exitDy=0;" edge="1" parent="1" source="xvZxMcmn04MtSwVoVZRB-26">
          <mxGeometry relative="1" as="geometry">
            <mxPoint x="680" y="439" as="sourcePoint" />
            <mxPoint x="790" y="420" as="targetPoint" />
          </mxGeometry>
        </mxCell>
        <mxCell id="xvZxMcmn04MtSwVoVZRB-44" value="" style="endArrow=none;html=1;rounded=0;" edge="1" parent="1">
          <mxGeometry relative="1" as="geometry">
            <mxPoint x="700" y="480" as="sourcePoint" />
            <mxPoint x="790" y="430" as="targetPoint" />
          </mxGeometry>
        </mxCell>
        <mxCell id="xvZxMcmn04MtSwVoVZRB-45" value="" style="endArrow=none;html=1;rounded=0;" edge="1" parent="1">
          <mxGeometry relative="1" as="geometry">
            <mxPoint x="700" y="515" as="sourcePoint" />
            <mxPoint x="790" y="430" as="targetPoint" />
          </mxGeometry>
        </mxCell>
        <mxCell id="xvZxMcmn04MtSwVoVZRB-46" value="" style="endArrow=none;html=1;rounded=0;exitX=1;exitY=0.75;exitDx=0;exitDy=0;" edge="1" parent="1" source="xvZxMcmn04MtSwVoVZRB-29">
          <mxGeometry relative="1" as="geometry">
            <mxPoint x="730" y="260" as="sourcePoint" />
            <mxPoint x="790" y="420" as="targetPoint" />
          </mxGeometry>
        </mxCell>
        <mxCell id="xvZxMcmn04MtSwVoVZRB-47" value="include" style="endArrow=open;endSize=12;dashed=1;html=1;rounded=0;exitX=1;exitY=0.5;exitDx=0;exitDy=0;" edge="1" parent="1" source="xvZxMcmn04MtSwVoVZRB-20">
          <mxGeometry x="0.0384" y="7" width="160" relative="1" as="geometry">
            <mxPoint x="350" y="380" as="sourcePoint" />
            <mxPoint x="290" y="470" as="targetPoint" />
            <Array as="points">
              <mxPoint x="435" y="420" />
            </Array>
            <mxPoint x="-1" as="offset" />
          </mxGeometry>
        </mxCell>
        <mxCell id="xvZxMcmn04MtSwVoVZRB-48" value="include" style="endArrow=open;endSize=12;dashed=1;html=1;rounded=0;entryX=0.367;entryY=0.967;entryDx=0;entryDy=0;entryPerimeter=0;" edge="1" parent="1" target="xvZxMcmn04MtSwVoVZRB-19">
          <mxGeometry x="0.2084" width="160" relative="1" as="geometry">
            <mxPoint x="290" y="380" as="sourcePoint" />
            <mxPoint x="470" y="300" as="targetPoint" />
            <Array as="points">
              <mxPoint x="450" y="360" />
            </Array>
            <mxPoint as="offset" />
          </mxGeometry>
        </mxCell>
        <mxCell id="xvZxMcmn04MtSwVoVZRB-49" value="include" style="endArrow=open;endSize=12;dashed=1;html=1;rounded=0;entryX=0;entryY=0.5;entryDx=0;entryDy=0;exitX=0.5;exitY=1;exitDx=0;exitDy=0;" edge="1" parent="1" source="xvZxMcmn04MtSwVoVZRB-18" target="xvZxMcmn04MtSwVoVZRB-19">
          <mxGeometry x="-0.3674" width="160" relative="1" as="geometry">
            <mxPoint x="310" y="150" as="sourcePoint" />
            <mxPoint x="470" y="150" as="targetPoint" />
            <Array as="points">
              <mxPoint x="190" y="250" />
            </Array>
            <mxPoint as="offset" />
          </mxGeometry>
        </mxCell>
        <mxCell id="xvZxMcmn04MtSwVoVZRB-50" value="include" style="endArrow=open;endSize=12;dashed=1;html=1;rounded=0;entryX=0.892;entryY=1;entryDx=0;entryDy=0;exitX=0;exitY=0.5;exitDx=0;exitDy=0;entryPerimeter=0;" edge="1" parent="1" source="xvZxMcmn04MtSwVoVZRB-28" target="xvZxMcmn04MtSwVoVZRB-19">
          <mxGeometry x="-0.3201" y="5" width="160" relative="1" as="geometry">
            <mxPoint x="530" y="240" as="sourcePoint" />
            <mxPoint x="690" y="240" as="targetPoint" />
            <Array as="points">
              <mxPoint x="450" y="510" />
            </Array>
            <mxPoint x="5" y="6" as="offset" />
          </mxGeometry>
        </mxCell>
        <mxCell id="xvZxMcmn04MtSwVoVZRB-51" value="include" style="endArrow=open;endSize=12;dashed=1;html=1;rounded=0;entryX=1;entryY=0.5;entryDx=0;entryDy=0;exitX=0;exitY=0.75;exitDx=0;exitDy=0;" edge="1" parent="1" source="xvZxMcmn04MtSwVoVZRB-27" target="xvZxMcmn04MtSwVoVZRB-19">
          <mxGeometry x="-0.4037" width="160" relative="1" as="geometry">
            <mxPoint x="520" y="270" as="sourcePoint" />
            <mxPoint x="680" y="270" as="targetPoint" />
            <Array as="points">
              <mxPoint x="480" y="480" />
            </Array>
            <mxPoint as="offset" />
          </mxGeometry>
        </mxCell>
      </root>
    </mxGraphModel>
  </diagram>
</mxfile>
